<svg width="38" height="38" viewBox="0 0 38 38" fill="none" xmlns="http://www.w3.org/2000/svg">
<rect width="38" height="38" fill="#E84778"/>
<path d="M18.8024 19.5602H14.1608C12.3042 19.5602 10.7725 18.0202 10.7725 16.1535C10.7725 14.2869 12.3042 12.7469 14.1608 12.7469H22.0978V8.54688H14.1608C10.0299 8.59354 6.6416 12.0002 6.6416 16.2002C6.6416 19.4202 8.63745 22.1269 11.4224 23.2469L7.80198 29.5002H12.6291L15.9246 23.7602H18.7559C20.6125 23.7602 22.1442 25.3002 22.1442 27.1669V29.4535H26.3216V27.1669C26.2752 22.9669 22.9333 19.6069 18.8024 19.5602Z" fill="white"/>
<path d="M33.6058 25.2529H29.4285V29.4529H33.6058V25.2529Z" fill="white"/>
</svg>
